<?xml version="1.0" encoding="UTF-8"?>
<svg width="32" height="32" viewBox="0 0 32 32" fill="none" xmlns="http://www.w3.org/2000/svg">
    <rect width="32" height="32" rx="16" fill="#0EA5E9" />
    <path
        d="M13.3 23V9.5H18.55C19.5167 9.5 20.3167 9.68333 20.95 10.05C21.5833 10.4167 22.0667 10.9167 22.4 11.55C22.7333 12.1833 22.9 12.9 22.9 13.7C22.9 14.5 22.7333 15.2167 22.4 15.85C22.0667 16.4833 21.5833 16.9833 20.95 17.35C20.3167 17.7167 19.5167 17.9 18.55 17.9H15.7V23H13.3ZM15.7 15.85H18.4C19.1 15.85 19.6333 15.6667 20 15.3C20.3667 14.9333 20.55 14.4167 20.55 13.75C20.55 13.0833 20.3667 12.5667 20 12.2C19.6333 11.8333 19.1 11.65 18.4 11.65H15.7V15.85Z"
        fill="white" />
</svg> 